<svg version="1.2" xmlns="http://www.w3.org/2000/svg" viewBox="0 0 289 85" width="289" height="85">
	<style>
		.s0 { fill: #000000 } 
	</style>
	<g style="opacity: .8">
		<path class="s0" d="m20.19 49.06c0.48 0 0.95 0.48 0.95 6.62 0 5.76-0.47 6.14-0.95 6.14h-3.46c-10.94 0-16.42-6.62-16.42-17.95v-43.87h12.29v43.01c0 4.13 1.54 6.05 4.99 6.05zm27-4.32c0 10.65-6.82 17.08-17.57 17.08h-9.41c-0.38 0-0.96-0.28-0.96-6.14 0-6.14 0.58-6.62 0.96-6.62h9.41c3.17 0 5.38-1.83 5.38-4.9v-15.36h12.19zm-12.77 38.02h-13.06v-10.95h13.06zm63.3-51.74c5.95-7.49 12.29-10.27 18.24-10.27 11.14 0 18.82 8.25 18.82 20.25 0 12.58-8.26 20.83-21.22 20.83h-34.08l-0.96-12.76h7.01v-49.06h12.19zm15.84 18.05c5.76 0 9.02-2.98 9.02-8.07 0-4.8-3.16-7.96-7.58-7.96-5.38 0-10.85 5.37-17.95 16.03zm54.85 0c0.48 0 0.96 0.48 0.96 6.62 0 5.76-0.48 6.15-0.96 6.15h-3.46c-10.94 0-16.41-6.63-16.41-17.96v-43.87h12.28v43.01c0 4.13 1.54 6.05 5 6.05zm11.15 0c3.17 0 5.38-1.83 5.38-4.9v-15.36h12.19v14.98c0 3.45 1.82 5.28 5.38 5.28h3.64c0.39 0 0.96 0.48 0.96 6.43 0 5.95-0.57 6.34-0.96 6.34h-4.22c-5.09 0-8.93-1.35-10.94-4.61-2.4 3.26-6.15 4.61-11.43 4.61h-11.13c-0.39 0-0.96-0.29-0.96-6.15 0-6.14 0.57-6.62 0.96-6.62zm4.99 33.69h-13.06v-10.94h13.06zm50.93-74.88v10.94h-27.16v-10.94zm-14.6 36.29v-15.36h12.2v15.93c0 10.66-6.82 17.09-17.57 17.09h-9.41c-0.38 0-0.96-0.29-0.96-6.14 0-6.15 0.58-6.63 0.96-6.63h9.41c3.17 0 5.37-1.82 5.37-4.89zm41.59 14.11c0 15.84-10.08 26.5-25.92 26.5h-8.06l-1.06-12.77h8.93c8.83 0 13.92-4.99 13.92-13.73v-29.47h12.19zm13.74 3.55v-61.82h12.29v61.82z"/>
	</g>
</svg>