<?xml version="1.0" encoding="UTF-8"?>
<svg id="Layer_1" data-name="Layer 1" xmlns="http://www.w3.org/2000/svg" viewBox="0 0 409.06 167.6">
  <defs>
    <style>
      .cls-1 {
        fill: #0205b6;
      }

      .cls-1, .cls-2 {
        stroke-width: 0px;
      }

      .cls-2 {
        fill: #df3d28;
      }
    </style>
  </defs>
  <path class="cls-1" d="m111.58,69.21c-.09,32.78-.18,65.57-.27,98.35-1.43,0-2.69,0-3.94,0-18.21,0-36.41-.04-54.62.05-2.51.01-3.65-.51-3.62-3.33.23-18.21.13-36.42.51-54.63.32-15.07,3.29-29.67,9.68-43.41,6.23-13.39,14.7-25.12,25.65-35.21,8.58-7.91,17.84-14.74,28.47-19.31,8.27-3.56,16.97-6.59,25.78-8.32,10.94-2.14,22.19-2.88,33.75-.84v66.64h-61.38Z"/>
  <path class="cls-1" d="m227.8,1.92c31.28,55.21,62.56,110.42,93.84,165.63-1.55,0-3.91-.02-6.81-.05-6.08-.05-7.07-.09-10.72-.1-4.01-.01-3.44.03-8.65.03-5.37,0-5.48-.05-9.28-.02-2.21.01-3.69.04-6.97.05-1.74,0-3.17,0-4.11,0-.76-1.48-1.91-3.73-3.37-6.45-2.99-5.6-5.35-9.62-6.21-11.14-4.18-7.43-5.64-10.56-11.04-20.64-5-9.33-3.77-6.69-12.88-23.28-7.26-13.21-8.59-15.89-12.34-20.19-3.26-3.73-7.13-8.04-13.64-11.59-8.98-4.89-17.43-5.43-21.41-5.51-1.33-.03-2.66,0-4.39,0,12.63-22.2,25.08-44.08,37.97-66.73Z"/>
  <path class="cls-1" d="m315.21,1.92c31.28,55.21,62.56,110.42,93.84,165.63-1.55,0-3.91-.02-6.81-.05-6.08-.05-7.07-.09-10.72-.1-4.01-.01-3.44.03-8.65.03-5.37,0-5.48-.05-9.28-.02-2.21.01-3.69.04-6.97.05-1.74,0-3.17,0-4.11,0-.76-1.48-1.91-3.73-3.37-6.45-2.99-5.6-5.35-9.62-6.21-11.14-4.18-7.43-5.64-10.56-11.04-20.64-5-9.33-3.77-6.69-12.88-23.28-7.26-13.21-8.59-15.89-12.34-20.19-3.26-3.73-7.13-8.04-13.64-11.59-8.98-4.89-17.43-5.43-21.41-5.51-1.33-.03-2.66,0-4.39,0,12.63-22.2,25.08-44.08,37.97-66.73Z"/>
  <path class="cls-2" d="m69,0C71.31,32.76,42.68,69.32,0,69.2,0,46.28,0,23.34,0,0c22.96,0,45.99,0,69,0Z"/>
  <path class="cls-2" d="m190.2,127.79l-.36-44.51c.12,0,.24,0,.36,0,24.42,0,44.51,20.09,44.51,44.51h-44.51Z"/>
</svg>