<svg version="1.2" xmlns="http://www.w3.org/2000/svg" viewBox="0 0 182 83" width="182" height="83">
	<style>
		.s0 { fill: #df3d28 } 
	</style>
	<g style="opacity: .8">
		<path class="s0" d="m19.87 49.06c0.48 0 0.96 0.48 0.96 6.62 0 5.76-0.48 6.14-0.96 6.14h-3.45c-10.95 0-16.42-6.62-16.42-17.95v-43.87h12.29v43.01c0 4.13 1.53 6.05 4.99 6.05zm14.42 0c0.38 0 0.96 0.67 0.96 6.62 0 6.05-0.58 6.14-0.96 6.14h-14.4c-0.38 0-0.96-0.38-0.96-6.14 0-6.24 0.58-6.62 0.96-6.62zm14.44 0c0.38 0 0.96 0.67 0.96 6.62 0 6.05-0.58 6.14-0.96 6.14h-14.4c-0.39 0-0.96-0.38-0.96-6.14 0-6.24 0.57-6.62 0.96-6.62zm14.82-20.26h12.19v15.94c0 10.65-6.82 17.08-17.57 17.08h-9.41c-0.38 0-0.96-0.28-0.96-6.14 0-6.14 0.58-6.62 0.96-6.62h9.41c3.17 0 5.38-1.83 5.38-4.9zm6.43 43.01v10.94h-27.07v-10.94zm38.37-22.75c3.07 0 5.28-1.35 5.28-3.65 0-2.02-1.35-5.28-9.99-28.32l11.33-5.38 11.14 31.11c1.53 4.41 3.16 6.24 6.62 6.24h2.5c0.38 0 0.96 0.67 0.96 6.62 0 6.05-0.58 6.14-0.96 6.14h-3.08c-5.47 0-9.31-1.34-11.8-5.08-2.5 3.74-6.24 5.08-11.62 5.08h-21.89l-0.96-12.76zm29.35 0c3.55 0 4.9-1.35 4.9-4.52v-2.68c0-12.48 7.68-20.16 19.77-20.16 12.1 0 18.82 7.2 18.82 20.25 0 12.58-7.2 19.87-19.3 19.87-6.52 0-10.75-1.82-12.67-4.6-2.4 3.26-5.85 4.6-11.52 4.6h-2.49c-0.39 0-0.96-0.28-0.96-6.14 0-6.14 0.57-6.62 0.96-6.62zm31.39-7.11c0-5.37-2.31-8.06-7.2-8.06-4.9 0-7.2 2.69-7.2 8.06 0 4.51 2.3 7.2 7.2 7.2 4.89 0 7.2-2.3 7.2-7.2z"/>
	</g>
</svg>