<svg version="1.2" xmlns="http://www.w3.org/2000/svg" viewBox="0 0 195 85" width="195" height="85">
	<style>
		.s0 { fill: #0205b6 } 
	</style>
	<g style="opacity: .8">
		<path class="s0" d="m21.64 40.32c0-2.78 0.58-5.18 1.73-6.82h-3.17c-5.28 0-7.97 2.88-7.97 7.97v43.2h-12.19v-43.2c0-12.38 7.97-20.25 20.64-20.25h20.74c12.48 0 18.24 6.33 18.24 17.47v5.28c0 11.52-6.82 17.85-19.3 17.85-12.38 0-18.72-6.24-18.72-16.7zm19.2 8.83c4.03 0 6.72-1.34 6.72-5.76v-3.74c0-3.94-2.21-6.24-6.24-6.24h-1.73c-4.03 0-5.85 2.69-5.85 6.24v3.26c0 4.9 2.21 6.24 7.1 6.24zm52.41-0.09c0.48 0 0.96 0.48 0.96 6.62 0 5.76-0.48 6.14-0.96 6.14h-3.46c-10.94 0-16.41-6.62-16.41-17.95v-43.87h12.28v43.01c0 4.13 1.54 6.05 4.99 6.05zm14.42 0c0.39 0 0.96 0.67 0.96 6.62 0 6.05-0.57 6.14-0.96 6.14h-14.4c-0.38 0-0.96-0.38-0.96-6.14 0-6.24 0.58-6.62 0.96-6.62zm14.44 0c0.39 0 0.96 0.67 0.96 6.62 0 6.05-0.57 6.14-0.96 6.14h-14.4c-0.38 0-0.96-0.38-0.96-6.14 0-6.24 0.58-6.62 0.96-6.62zm14.44 0c0.38 0 0.96 0.67 0.96 6.62 0 6.05-0.58 6.14-0.96 6.14h-14.4c-0.38 0-0.96-0.38-0.96-6.14 0-6.24 0.58-6.62 0.96-6.62zm14.44 0c0.38 0 0.96 0.67 0.96 6.62 0 6.05-0.58 6.14-0.96 6.14h-14.4c-0.39 0-0.96-0.38-0.96-6.14 0-6.24 0.57-6.62 0.96-6.62zm14.44 0c0.38 0 0.96 0.67 0.96 6.62 0 6.05-0.58 6.14-0.96 6.14h-14.4c-0.39 0-0.96-0.38-0.96-6.14 0-6.24 0.57-6.62 0.96-6.62zm29.41-41.19v10.95h-27.17v-10.95zm-14.59 36.29v-15.36h12.19v15.94c0 10.65-6.82 17.08-17.57 17.08h-9.41c-0.38 0-0.96-0.28-0.96-6.14 0-6.14 0.58-6.62 0.96-6.62h9.41c3.17 0 5.38-1.83 5.38-4.9z"/>
	</g>
</svg>