<svg width="209" height="43" viewBox="0 0 209 43" fill="none" xmlns="http://www.w3.org/2000/svg">
<g opacity="0.9">
<path d="M9.93605 24.5281C10.0961 24.5281 10.2081 24.7361 10.2721 25.1521C10.3681 25.5681 10.4161 26.4641 10.4161 27.8401C10.4161 29.1201 10.3681 29.9521 10.2721 30.3361C10.2081 30.7201 10.0961 30.9121 9.93605 30.9121H8.20805C5.52005 30.9121 3.47205 30.1441 2.06405 28.6081C0.688051 27.0401 5.10216e-05 24.8161 5.10216e-05 21.9361V0.000106812H6.14405V21.5041C6.14405 22.5281 6.33605 23.2961 6.72005 23.8081C7.13605 24.2881 7.77605 24.5281 8.64005 24.5281H9.93605ZM17.1458 24.5281C17.4658 24.5281 17.6258 25.6321 17.6258 27.8401C17.6258 29.1521 17.5778 30.0001 17.4818 30.3841C17.3858 30.7361 17.2738 30.9121 17.1458 30.9121H9.9458C9.6258 30.9121 9.4658 29.8881 9.4658 27.8401C9.4658 25.6321 9.6258 24.5281 9.9458 24.5281H17.1458ZM24.3646 24.5281C24.6846 24.5281 24.8446 25.6321 24.8446 27.8401C24.8446 29.1521 24.7966 30.0001 24.7006 30.3841C24.6046 30.7361 24.4926 30.9121 24.3646 30.9121H17.1646C16.8446 30.9121 16.6846 29.8881 16.6846 27.8401C16.6846 25.6321 16.8446 24.5281 17.1646 24.5281H24.3646ZM31.5833 24.5281C31.9033 24.5281 32.0633 25.6321 32.0633 27.8401C32.0633 29.1521 32.0153 30.0001 31.9193 30.3841C31.8233 30.7361 31.7113 30.9121 31.5833 30.9121H24.3833C24.0633 30.9121 23.9033 29.8881 23.9033 27.8401C23.9033 25.6321 24.0633 24.5281 24.3833 24.5281H31.5833ZM38.8021 24.5281C39.1221 24.5281 39.2821 25.6321 39.2821 27.8401C39.2821 29.1521 39.2341 30.0001 39.1381 30.3841C39.0421 30.7361 38.9301 30.9121 38.8021 30.9121H31.6021C31.2821 30.9121 31.1221 29.8881 31.1221 27.8401C31.1221 25.6321 31.2821 24.5281 31.6021 24.5281H38.8021ZM46.0208 24.5281C46.3408 24.5281 46.5008 25.6321 46.5008 27.8401C46.5008 29.1521 46.4528 30.0001 46.3568 30.3841C46.2608 30.7361 46.1488 30.9121 46.0208 30.9121H38.8208C38.5008 30.9121 38.3408 29.8881 38.3408 27.8401C38.3408 25.6321 38.5008 24.5281 38.8208 24.5281H46.0208ZM59.5276 22.3681C59.5276 25.0241 58.7276 27.1201 57.1276 28.6561C55.5596 30.1601 53.4316 30.9121 50.7436 30.9121H46.0396C45.7196 30.9121 45.5596 29.8881 45.5596 27.8401C45.5596 25.6321 45.7196 24.5281 46.0396 24.5281H50.7436C51.5436 24.5281 52.1836 24.3201 52.6636 23.9041C53.1756 23.4561 53.4316 22.8481 53.4316 22.0801V14.4001H59.5276V22.3681ZM56.6476 35.9041V41.3761H43.1116V35.9041H56.6476ZM75.8311 24.5281C76.6311 24.5281 77.2711 24.3681 77.7511 24.0481C78.2311 23.7281 78.4711 23.2801 78.4711 22.7041C78.4711 22.2881 78.2631 21.5201 77.8471 20.4001C77.4631 19.2481 76.5191 16.6721 75.0151 12.6721L73.4791 8.54411L79.1431 5.85611L84.7111 21.4081C85.0951 22.5281 85.5271 23.3281 86.0071 23.8081C86.5191 24.2881 87.1911 24.5281 88.0231 24.5281H89.2711C89.5911 24.5281 89.7511 25.6321 89.7511 27.8401C89.7511 29.1521 89.7031 30.0001 89.6071 30.3841C89.5111 30.7361 89.3991 30.9121 89.2711 30.9121H87.7351C86.3271 30.9121 85.1431 30.7201 84.1831 30.3361C83.2231 29.9201 82.4391 29.2641 81.8311 28.3681C81.2231 29.2641 80.4391 29.9201 79.4791 30.3361C78.5511 30.7201 77.3991 30.9121 76.0231 30.9121H65.0791L64.5991 24.5281H75.8311ZM90.5063 24.5281C91.4023 24.5281 92.0263 24.3521 92.3783 24.0001C92.7623 23.6481 92.9543 23.0721 92.9543 22.2721V20.9281C92.9543 17.8241 93.8343 15.3761 95.5943 13.5841C97.3863 11.7601 99.8023 10.8481 102.842 10.8481C105.882 10.8481 108.202 11.7281 109.802 13.4881C111.434 15.2161 112.25 17.7121 112.25 20.9761C112.25 24.1121 111.402 26.5601 109.706 28.3201C108.01 30.0481 105.642 30.9121 102.602 30.9121C101.002 30.9121 99.6743 30.7201 98.6183 30.3361C97.5623 29.9201 96.7783 29.3441 96.2663 28.6081C95.6583 29.4081 94.8903 30.0001 93.9623 30.3841C93.0663 30.7361 91.9143 30.9121 90.5063 30.9121H89.2583C88.9383 30.9121 88.7783 29.8881 88.7783 27.8401C88.7783 25.6321 88.9383 24.5281 89.2583 24.5281H90.5063ZM106.202 20.9761C106.202 18.2881 105.002 16.9441 102.602 16.9441C100.202 16.9441 99.0023 18.2881 99.0023 20.9761C99.0023 22.1281 99.2903 23.0241 99.8663 23.6641C100.474 24.2721 101.386 24.5761 102.602 24.5761C103.818 24.5761 104.714 24.2881 105.29 23.7121C105.898 23.1041 106.202 22.1921 106.202 20.9761Z" fill="#DF3D28"/>
<path d="M129.477 20.1601C129.477 18.6881 129.765 17.5521 130.341 16.7521H128.757C127.445 16.7521 126.453 17.1041 125.781 17.8081C125.109 18.4801 124.773 19.4561 124.773 20.7361V42.3361H118.677V20.7361C118.677 17.6321 119.605 15.1681 121.461 13.3441C123.317 11.5201 125.829 10.6081 128.997 10.6081H139.365C142.437 10.6081 144.725 11.3601 146.229 12.8641C147.733 14.3361 148.485 16.4961 148.485 19.3441V21.9841C148.485 24.8641 147.653 27.0721 145.989 28.6081C144.325 30.1441 141.941 30.9121 138.837 30.9121C135.765 30.9121 133.429 30.1921 131.829 28.7521C130.261 27.2801 129.477 25.2161 129.477 22.5601V20.1601ZM139.077 24.5761C140.165 24.5761 140.997 24.3681 141.573 23.9521C142.149 23.5041 142.437 22.7521 142.437 21.6961V19.8241C142.437 18.8321 142.165 18.0641 141.621 17.5201C141.077 16.9761 140.309 16.7041 139.317 16.7041H138.453C137.493 16.7041 136.757 16.9921 136.245 17.5681C135.765 18.1441 135.525 18.8961 135.525 19.8241V21.4561C135.525 22.6401 135.797 23.4561 136.341 23.9041C136.885 24.3521 137.797 24.5761 139.077 24.5761ZM165.28 24.5281C165.44 24.5281 165.552 24.7361 165.616 25.1521C165.712 25.5681 165.76 26.4641 165.76 27.8401C165.76 29.1201 165.712 29.9521 165.616 30.3361C165.552 30.7201 165.44 30.9121 165.28 30.9121H163.552C160.864 30.9121 158.816 30.1441 157.408 28.6081C156.032 27.0401 155.344 24.8161 155.344 21.9361V0.000106812H161.488V21.5041C161.488 22.5281 161.68 23.2961 162.064 23.8081C162.48 24.2881 163.12 24.5281 163.984 24.5281H165.28ZM172.49 24.5281C172.81 24.5281 172.97 25.6321 172.97 27.8401C172.97 29.1521 172.922 30.0001 172.826 30.3841C172.73 30.7361 172.618 30.9121 172.49 30.9121H165.29C164.97 30.9121 164.81 29.8881 164.81 27.8401C164.81 25.6321 164.97 24.5281 165.29 24.5281H172.49ZM179.708 24.5281C180.028 24.5281 180.188 25.6321 180.188 27.8401C180.188 29.1521 180.14 30.0001 180.044 30.3841C179.948 30.7361 179.836 30.9121 179.708 30.9121H172.508C172.188 30.9121 172.028 29.8881 172.028 27.8401C172.028 25.6321 172.188 24.5281 172.508 24.5281H179.708ZM186.927 24.5281C187.247 24.5281 187.407 25.6321 187.407 27.8401C187.407 29.1521 187.359 30.0001 187.263 30.3841C187.167 30.7361 187.055 30.9121 186.927 30.9121H179.727C179.407 30.9121 179.247 29.8881 179.247 27.8401C179.247 25.6321 179.407 24.5281 179.727 24.5281H186.927ZM194.146 24.5281C194.466 24.5281 194.626 25.6321 194.626 27.8401C194.626 29.1521 194.578 30.0001 194.482 30.3841C194.386 30.7361 194.274 30.9121 194.146 30.9121H186.946C186.626 30.9121 186.466 29.8881 186.466 27.8401C186.466 25.6321 186.626 24.5281 186.946 24.5281H194.146ZM207.653 22.3681C207.653 25.0241 206.853 27.1201 205.253 28.6561C203.685 30.1601 201.557 30.9121 198.869 30.9121H194.165C193.845 30.9121 193.685 29.8881 193.685 27.8401C193.685 25.6321 193.845 24.5281 194.165 24.5281H198.869C199.669 24.5281 200.309 24.3201 200.789 23.9041C201.301 23.4561 201.557 22.8481 201.557 22.0801V14.4001H207.653V22.3681ZM208.805 3.93611V9.40811H195.269V3.93611H208.805Z" fill="#0205B6"/>
</g>
</svg>
