<svg width="707" height="85" viewBox="0 0 707 85" fill="none" xmlns="http://www.w3.org/2000/svg">
<g opacity="0.9">
<path d="M19.8721 49.0562C20.1921 49.0562 20.4161 49.4722 20.5441 50.3042C20.7361 51.1362 20.8321 52.9282 20.8321 55.6802C20.8321 58.2402 20.7361 59.9042 20.5441 60.6722C20.4161 61.4402 20.1921 61.8242 19.8721 61.8242H16.4161C11.0401 61.8242 6.9441 60.2882 4.1281 57.2162C1.3761 54.0802 0.000102043 49.6322 0.000102043 43.8722V0.000213623H12.2881V43.0082C12.2881 45.0562 12.6721 46.5922 13.4401 47.6162C14.2721 48.5762 15.5521 49.0562 17.2801 49.0562H19.8721ZM34.2916 49.0562C34.9316 49.0562 35.2516 51.2642 35.2516 55.6802C35.2516 58.3042 35.1556 60.0002 34.9636 60.7682C34.7716 61.4722 34.5476 61.8242 34.2916 61.8242H19.8916C19.2516 61.8242 18.9316 59.7762 18.9316 55.6802C18.9316 51.2642 19.2516 49.0562 19.8916 49.0562H34.2916ZM48.7291 49.0562C49.3691 49.0562 49.6891 51.2642 49.6891 55.6802C49.6891 58.3042 49.5931 60.0002 49.4011 60.7682C49.2091 61.4722 48.9851 61.8242 48.7291 61.8242H34.3291C33.6891 61.8242 33.3691 59.7762 33.3691 55.6802C33.3691 51.2642 33.6891 49.0562 34.3291 49.0562H48.7291ZM63.1666 49.0562C63.8066 49.0562 64.1266 51.2642 64.1266 55.6802C64.1266 58.3042 64.0306 60.0002 63.8386 60.7682C63.6466 61.4722 63.4226 61.8242 63.1666 61.8242H48.7666C48.1266 61.8242 47.8066 59.7762 47.8066 55.6802C47.8066 51.2642 48.1266 49.0562 48.7666 49.0562H63.1666ZM77.6041 49.0562C78.2441 49.0562 78.5641 51.2642 78.5641 55.6802C78.5641 58.3042 78.4681 60.0002 78.2761 60.7682C78.0841 61.4722 77.8601 61.8242 77.6041 61.8242H63.2041C62.5641 61.8242 62.2441 59.7762 62.2441 55.6802C62.2441 51.2642 62.5641 49.0562 63.2041 49.0562H77.6041ZM92.0416 49.0562C92.6816 49.0562 93.0016 51.2642 93.0016 55.6802C93.0016 58.3042 92.9056 60.0002 92.7136 60.7682C92.5216 61.4722 92.2976 61.8242 92.0416 61.8242H77.6416C77.0016 61.8242 76.6816 59.7762 76.6816 55.6802C76.6816 51.2642 77.0016 49.0562 77.6416 49.0562H92.0416ZM106.479 49.0562C107.119 49.0562 107.439 51.2642 107.439 55.6802C107.439 58.3042 107.343 60.0002 107.151 60.7682C106.959 61.4722 106.735 61.8242 106.479 61.8242H92.0791C91.4391 61.8242 91.1191 59.7762 91.1191 55.6802C91.1191 51.2642 91.4391 49.0562 92.0791 49.0562H106.479ZM120.917 49.0562C121.557 49.0562 121.877 51.2642 121.877 55.6802C121.877 58.3042 121.781 60.0002 121.589 60.7682C121.397 61.4722 121.173 61.8242 120.917 61.8242H106.517C105.877 61.8242 105.557 59.7762 105.557 55.6802C105.557 51.2642 105.877 49.0562 106.517 49.0562H120.917ZM135.354 49.0562C135.994 49.0562 136.314 51.2642 136.314 55.6802C136.314 58.3042 136.218 60.0002 136.026 60.7682C135.834 61.4722 135.61 61.8242 135.354 61.8242H120.954C120.314 61.8242 119.994 59.7762 119.994 55.6802C119.994 51.2642 120.314 49.0562 120.954 49.0562H135.354ZM149.792 49.0562C150.432 49.0562 150.752 51.2642 150.752 55.6802C150.752 58.3042 150.656 60.0002 150.464 60.7682C150.272 61.4722 150.048 61.8242 149.792 61.8242H135.392C134.752 61.8242 134.432 59.7762 134.432 55.6802C134.432 51.2642 134.752 49.0562 135.392 49.0562H149.792ZM164.229 49.0562C164.869 49.0562 165.189 51.2642 165.189 55.6802C165.189 58.3042 165.093 60.0002 164.901 60.7682C164.709 61.4722 164.485 61.8242 164.229 61.8242H149.829C149.189 61.8242 148.869 59.7762 148.869 55.6802C148.869 51.2642 149.189 49.0562 149.829 49.0562H164.229ZM178.667 49.0562C179.307 49.0562 179.627 51.2642 179.627 55.6802C179.627 58.3042 179.531 60.0002 179.339 60.7682C179.147 61.4722 178.923 61.8242 178.667 61.8242H164.267C163.627 61.8242 163.307 59.7762 163.307 55.6802C163.307 51.2642 163.627 49.0562 164.267 49.0562H178.667ZM193.104 49.0562C193.744 49.0562 194.064 51.2642 194.064 55.6802C194.064 58.3042 193.968 60.0002 193.776 60.7682C193.584 61.4722 193.36 61.8242 193.104 61.8242H178.704C178.064 61.8242 177.744 59.7762 177.744 55.6802C177.744 51.2642 178.064 49.0562 178.704 49.0562H193.104ZM207.542 49.0562C208.182 49.0562 208.502 51.2642 208.502 55.6802C208.502 58.3042 208.406 60.0002 208.214 60.7682C208.022 61.4722 207.798 61.8242 207.542 61.8242H193.142C192.502 61.8242 192.182 59.7762 192.182 55.6802C192.182 51.2642 192.502 49.0562 193.142 49.0562H207.542ZM234.555 44.7362C234.555 50.0482 232.955 54.2402 229.755 57.3122C226.619 60.3202 222.363 61.8242 216.987 61.8242H207.579C206.939 61.8242 206.619 59.7762 206.619 55.6802C206.619 51.2642 206.939 49.0562 207.579 49.0562H216.987C218.587 49.0562 219.867 48.6402 220.827 47.8082C221.851 46.9122 222.363 45.6962 222.363 44.1602V28.8002H234.555V44.7362ZM228.795 71.8082V82.7522H201.723V71.8082H228.795ZM267.162 49.0562C268.762 49.0562 270.042 48.7362 271.002 48.0962C271.962 47.4562 272.442 46.5602 272.442 45.4082C272.442 44.5762 272.026 43.0402 271.194 40.8002C270.426 38.4962 268.538 33.3442 265.53 25.3442L262.458 17.0882L273.786 11.7122L284.922 42.8162C285.69 45.0562 286.554 46.6562 287.514 47.6162C288.538 48.5762 289.882 49.0562 291.546 49.0562H294.042C294.682 49.0562 295.002 51.2642 295.002 55.6802C295.002 58.3042 294.906 60.0002 294.714 60.7682C294.522 61.4722 294.298 61.8242 294.042 61.8242H290.97C288.154 61.8242 285.786 61.4402 283.866 60.6722C281.946 59.8402 280.378 58.5282 279.162 56.7362C277.946 58.5282 276.378 59.8402 274.458 60.6722C272.602 61.4402 270.298 61.8242 267.546 61.8242H245.658L244.698 49.0562H267.162ZM296.513 49.0562C298.305 49.0562 299.553 48.7042 300.257 48.0002C301.025 47.2962 301.409 46.1442 301.409 44.5442V41.8562C301.409 35.6482 303.169 30.7522 306.689 27.1682C310.273 23.5202 315.105 21.6962 321.185 21.6962C327.265 21.6962 331.905 23.4562 335.105 26.9762C338.369 30.4322 340.001 35.4242 340.001 41.9522C340.001 48.2242 338.305 53.1202 334.913 56.6402C331.521 60.0962 326.785 61.8242 320.705 61.8242C317.505 61.8242 314.849 61.4402 312.737 60.6722C310.625 59.8402 309.057 58.6882 308.033 57.2162C306.817 58.8162 305.281 60.0002 303.425 60.7682C301.633 61.4722 299.329 61.8242 296.513 61.8242H294.017C293.377 61.8242 293.057 59.7762 293.057 55.6802C293.057 51.2642 293.377 49.0562 294.017 49.0562H296.513ZM327.905 41.9522C327.905 36.5762 325.505 33.8882 320.705 33.8882C315.905 33.8882 313.505 36.5762 313.505 41.9522C313.505 44.2562 314.081 46.0482 315.233 47.3282C316.449 48.5442 318.273 49.1522 320.705 49.1522C323.137 49.1522 324.929 48.5762 326.081 47.4242C327.297 46.2082 327.905 44.3842 327.905 41.9522Z" fill="#DF3D28"/>
<path d="M374.455 40.3202C374.455 37.3762 375.031 35.1042 376.183 33.5042H373.015C370.391 33.5042 368.407 34.2082 367.063 35.6162C365.719 36.9602 365.047 38.9122 365.047 41.4722V84.6722H352.855V41.4722C352.855 35.2642 354.711 30.3362 358.423 26.6882C362.135 23.0402 367.159 21.2162 373.495 21.2162H394.231C400.375 21.2162 404.951 22.7202 407.959 25.7282C410.967 28.6722 412.471 32.9922 412.471 38.6882V43.9682C412.471 49.7282 410.807 54.1442 407.479 57.2162C404.151 60.2882 399.383 61.8242 393.175 61.8242C387.031 61.8242 382.359 60.3842 379.159 57.5042C376.023 54.5602 374.455 50.4322 374.455 45.1202V40.3202ZM393.655 49.1522C395.831 49.1522 397.495 48.7362 398.647 47.9042C399.799 47.0082 400.375 45.5042 400.375 43.3922V39.6482C400.375 37.6642 399.831 36.1282 398.743 35.0402C397.655 33.9522 396.119 33.4082 394.135 33.4082H392.407C390.487 33.4082 389.015 33.9842 387.991 35.1362C387.031 36.2882 386.551 37.7922 386.551 39.6482V42.9122C386.551 45.2802 387.095 46.9122 388.183 47.8082C389.271 48.7042 391.095 49.1522 393.655 49.1522ZM446.06 49.0562C446.38 49.0562 446.604 49.4722 446.732 50.3042C446.924 51.1362 447.02 52.9282 447.02 55.6802C447.02 58.2402 446.924 59.9042 446.732 60.6722C446.604 61.4402 446.38 61.8242 446.06 61.8242H442.604C437.228 61.8242 433.132 60.2882 430.316 57.2162C427.564 54.0802 426.188 49.6322 426.188 43.8722V0.000213623H438.476V43.0082C438.476 45.0562 438.86 46.5922 439.628 47.6162C440.46 48.5762 441.74 49.0562 443.468 49.0562H446.06ZM460.479 49.0562C461.119 49.0562 461.439 51.2642 461.439 55.6802C461.439 58.3042 461.343 60.0002 461.151 60.7682C460.959 61.4722 460.735 61.8242 460.479 61.8242H446.079C445.439 61.8242 445.119 59.7762 445.119 55.6802C445.119 51.2642 445.439 49.0562 446.079 49.0562H460.479ZM474.917 49.0562C475.557 49.0562 475.877 51.2642 475.877 55.6802C475.877 58.3042 475.781 60.0002 475.589 60.7682C475.397 61.4722 475.173 61.8242 474.917 61.8242H460.517C459.877 61.8242 459.557 59.7762 459.557 55.6802C459.557 51.2642 459.877 49.0562 460.517 49.0562H474.917ZM489.354 49.0562C489.994 49.0562 490.314 51.2642 490.314 55.6802C490.314 58.3042 490.218 60.0002 490.026 60.7682C489.834 61.4722 489.61 61.8242 489.354 61.8242H474.954C474.314 61.8242 473.994 59.7762 473.994 55.6802C473.994 51.2642 474.314 49.0562 474.954 49.0562H489.354ZM503.792 49.0562C504.432 49.0562 504.752 51.2642 504.752 55.6802C504.752 58.3042 504.656 60.0002 504.464 60.7682C504.272 61.4722 504.048 61.8242 503.792 61.8242H489.392C488.752 61.8242 488.432 59.7762 488.432 55.6802C488.432 51.2642 488.752 49.0562 489.392 49.0562H503.792ZM518.229 49.0562C518.869 49.0562 519.189 51.2642 519.189 55.6802C519.189 58.3042 519.093 60.0002 518.901 60.7682C518.709 61.4722 518.485 61.8242 518.229 61.8242H503.829C503.189 61.8242 502.869 59.7762 502.869 55.6802C502.869 51.2642 503.189 49.0562 503.829 49.0562H518.229ZM532.667 49.0562C533.307 49.0562 533.627 51.2642 533.627 55.6802C533.627 58.3042 533.531 60.0002 533.339 60.7682C533.147 61.4722 532.923 61.8242 532.667 61.8242H518.267C517.627 61.8242 517.307 59.7762 517.307 55.6802C517.307 51.2642 517.627 49.0562 518.267 49.0562H532.667ZM547.104 49.0562C547.744 49.0562 548.064 51.2642 548.064 55.6802C548.064 58.3042 547.968 60.0002 547.776 60.7682C547.584 61.4722 547.36 61.8242 547.104 61.8242H532.704C532.064 61.8242 531.744 59.7762 531.744 55.6802C531.744 51.2642 532.064 49.0562 532.704 49.0562H547.104ZM561.542 49.0562C562.182 49.0562 562.502 51.2642 562.502 55.6802C562.502 58.3042 562.406 60.0002 562.214 60.7682C562.022 61.4722 561.798 61.8242 561.542 61.8242H547.142C546.502 61.8242 546.182 59.7762 546.182 55.6802C546.182 51.2642 546.502 49.0562 547.142 49.0562H561.542ZM575.979 49.0562C576.619 49.0562 576.939 51.2642 576.939 55.6802C576.939 58.3042 576.843 60.0002 576.651 60.7682C576.459 61.4722 576.235 61.8242 575.979 61.8242H561.579C560.939 61.8242 560.619 59.7762 560.619 55.6802C560.619 51.2642 560.939 49.0562 561.579 49.0562H575.979ZM590.417 49.0562C591.057 49.0562 591.377 51.2642 591.377 55.6802C591.377 58.3042 591.281 60.0002 591.089 60.7682C590.897 61.4722 590.673 61.8242 590.417 61.8242H576.017C575.377 61.8242 575.057 59.7762 575.057 55.6802C575.057 51.2642 575.377 49.0562 576.017 49.0562H590.417ZM604.854 49.0562C605.494 49.0562 605.814 51.2642 605.814 55.6802C605.814 58.3042 605.718 60.0002 605.526 60.7682C605.334 61.4722 605.11 61.8242 604.854 61.8242H590.454C589.814 61.8242 589.494 59.7762 589.494 55.6802C589.494 51.2642 589.814 49.0562 590.454 49.0562H604.854ZM619.292 49.0562C619.932 49.0562 620.252 51.2642 620.252 55.6802C620.252 58.3042 620.156 60.0002 619.964 60.7682C619.772 61.4722 619.548 61.8242 619.292 61.8242H604.892C604.252 61.8242 603.932 59.7762 603.932 55.6802C603.932 51.2642 604.252 49.0562 604.892 49.0562H619.292ZM633.729 49.0562C634.369 49.0562 634.689 51.2642 634.689 55.6802C634.689 58.3042 634.593 60.0002 634.401 60.7682C634.209 61.4722 633.985 61.8242 633.729 61.8242H619.329C618.689 61.8242 618.369 59.7762 618.369 55.6802C618.369 51.2642 618.689 49.0562 619.329 49.0562H633.729ZM648.167 49.0562C648.807 49.0562 649.127 51.2642 649.127 55.6802C649.127 58.3042 649.031 60.0002 648.839 60.7682C648.647 61.4722 648.423 61.8242 648.167 61.8242H633.767C633.127 61.8242 632.807 59.7762 632.807 55.6802C632.807 51.2642 633.127 49.0562 633.767 49.0562H648.167ZM662.604 49.0562C663.244 49.0562 663.564 51.2642 663.564 55.6802C663.564 58.3042 663.468 60.0002 663.276 60.7682C663.084 61.4722 662.86 61.8242 662.604 61.8242H648.204C647.564 61.8242 647.244 59.7762 647.244 55.6802C647.244 51.2642 647.564 49.0562 648.204 49.0562H662.604ZM677.042 49.0562C677.682 49.0562 678.002 51.2642 678.002 55.6802C678.002 58.3042 677.906 60.0002 677.714 60.7682C677.522 61.4722 677.298 61.8242 677.042 61.8242H662.642C662.002 61.8242 661.682 59.7762 661.682 55.6802C661.682 51.2642 662.002 49.0562 662.642 49.0562H677.042ZM704.055 44.7362C704.055 50.0482 702.455 54.2402 699.255 57.3122C696.119 60.3202 691.863 61.8242 686.487 61.8242H677.079C676.439 61.8242 676.119 59.7762 676.119 55.6802C676.119 51.2642 676.439 49.0562 677.079 49.0562H686.487C688.087 49.0562 689.367 48.6402 690.327 47.8082C691.351 46.9122 691.863 45.6962 691.863 44.1602V28.8002H704.055V44.7362ZM706.359 7.87222V18.8162H679.287V7.87222H706.359Z" fill="#0205B6"/>
</g>
</svg>
