<svg width="418" height="85" viewBox="0 0 418 85" fill="none" xmlns="http://www.w3.org/2000/svg">
<g opacity="0.9">
<path d="M20.168 49.232C20.488 49.232 20.712 49.648 20.84 50.48C21.032 51.312 21.128 53.104 21.128 55.856C21.128 58.416 21.032 60.08 20.84 60.848C20.712 61.616 20.488 62 20.168 62H16.712C11.336 62 7.24 60.464 4.424 57.392C1.672 54.256 0.296 49.808 0.296 44.048V0.175995H12.584V43.184C12.584 45.232 12.968 46.768 13.736 47.792C14.568 48.752 15.848 49.232 17.576 49.232H20.168ZM34.5875 49.232C35.2275 49.232 35.5475 51.44 35.5475 55.856C35.5475 58.48 35.4515 60.176 35.2595 60.944C35.0675 61.648 34.8435 62 34.5875 62H20.1875C19.5475 62 19.2275 59.952 19.2275 55.856C19.2275 51.44 19.5475 49.232 20.1875 49.232H34.5875ZM49.025 49.232C49.665 49.232 49.985 51.44 49.985 55.856C49.985 58.48 49.889 60.176 49.697 60.944C49.505 61.648 49.281 62 49.025 62H34.625C33.985 62 33.665 59.952 33.665 55.856C33.665 51.44 33.985 49.232 34.625 49.232H49.025ZM63.4625 49.232C64.1025 49.232 64.4225 51.44 64.4225 55.856C64.4225 58.48 64.3265 60.176 64.1345 60.944C63.9425 61.648 63.7185 62 63.4625 62H49.0625C48.4225 62 48.1025 59.952 48.1025 55.856C48.1025 51.44 48.4225 49.232 49.0625 49.232H63.4625ZM77.9 49.232C78.54 49.232 78.86 51.44 78.86 55.856C78.86 58.48 78.764 60.176 78.572 60.944C78.38 61.648 78.156 62 77.9 62H63.5C62.86 62 62.54 59.952 62.54 55.856C62.54 51.44 62.86 49.232 63.5 49.232H77.9ZM92.3375 49.232C92.9775 49.232 93.2975 51.44 93.2975 55.856C93.2975 58.48 93.2015 60.176 93.0095 60.944C92.8175 61.648 92.5935 62 92.3375 62H77.9375C77.2975 62 76.9775 59.952 76.9775 55.856C76.9775 51.44 77.2975 49.232 77.9375 49.232H92.3375ZM119.351 44.912C119.351 50.224 117.751 54.416 114.551 57.488C111.415 60.496 107.159 62 101.783 62H92.375C91.735 62 91.415 59.952 91.415 55.856C91.415 51.44 91.735 49.232 92.375 49.232H101.783C103.383 49.232 104.663 48.816 105.623 47.984C106.647 47.088 107.159 45.872 107.159 44.336V28.976H119.351V44.912ZM113.591 71.984V82.928H86.519V71.984H113.591ZM151.958 49.232C153.558 49.232 154.838 48.912 155.798 48.272C156.758 47.632 157.238 46.736 157.238 45.584C157.238 44.752 156.822 43.216 155.99 40.976C155.222 38.672 153.334 33.52 150.326 25.52L147.254 17.264L158.582 11.888L169.718 42.992C170.486 45.232 171.35 46.832 172.31 47.792C173.334 48.752 174.678 49.232 176.342 49.232H178.838C179.478 49.232 179.798 51.44 179.798 55.856C179.798 58.48 179.702 60.176 179.51 60.944C179.318 61.648 179.094 62 178.838 62H175.766C172.95 62 170.582 61.616 168.662 60.848C166.742 60.016 165.174 58.704 163.958 56.912C162.742 58.704 161.174 60.016 159.254 60.848C157.398 61.616 155.094 62 152.342 62H130.454L129.494 49.232H151.958ZM181.309 49.232C183.101 49.232 184.349 48.88 185.053 48.176C185.821 47.472 186.205 46.32 186.205 44.72V42.032C186.205 35.824 187.965 30.928 191.484 27.344C195.069 23.696 199.901 21.872 205.981 21.872C212.061 21.872 216.701 23.632 219.901 27.152C223.165 30.608 224.797 35.6 224.797 42.128C224.797 48.4 223.101 53.296 219.709 56.816C216.317 60.272 211.581 62 205.501 62C202.301 62 199.645 61.616 197.533 60.848C195.421 60.016 193.853 58.864 192.829 57.392C191.613 58.992 190.077 60.176 188.221 60.944C186.429 61.648 184.125 62 181.309 62H178.812C178.172 62 177.852 59.952 177.852 55.856C177.852 51.44 178.172 49.232 178.812 49.232H181.309ZM212.701 42.128C212.701 36.752 210.301 34.064 205.501 34.064C200.701 34.064 198.301 36.752 198.301 42.128C198.301 44.432 198.877 46.224 200.029 47.504C201.245 48.72 203.069 49.328 205.501 49.328C207.933 49.328 209.725 48.752 210.877 47.6C212.093 46.384 212.701 44.56 212.701 42.128Z" fill="#DF3D28"/>
<path d="M259.251 40.496C259.251 37.552 259.827 35.28 260.979 33.68H257.811C255.187 33.68 253.203 34.384 251.859 35.792C250.515 37.136 249.843 39.088 249.843 41.648V84.848H237.651V41.648C237.651 35.44 239.507 30.512 243.219 26.864C246.931 23.216 251.955 21.392 258.291 21.392H279.027C285.171 21.392 289.747 22.896 292.755 25.904C295.763 28.848 297.267 33.168 297.267 38.864V44.144C297.267 49.904 295.603 54.32 292.275 57.392C288.947 60.464 284.179 62 277.971 62C271.827 62 267.155 60.56 263.955 57.68C260.819 54.736 259.251 50.608 259.251 45.296V40.496ZM278.451 49.328C280.627 49.328 282.291 48.912 283.443 48.08C284.595 47.184 285.171 45.68 285.171 43.568V39.824C285.171 37.84 284.627 36.304 283.539 35.216C282.451 34.128 280.915 33.584 278.931 33.584H277.203C275.283 33.584 273.811 34.16 272.787 35.312C271.827 36.464 271.347 37.968 271.347 39.824V43.088C271.347 45.456 271.891 47.088 272.979 47.984C274.067 48.88 275.891 49.328 278.451 49.328ZM330.856 49.232C331.176 49.232 331.4 49.648 331.528 50.48C331.72 51.312 331.816 53.104 331.816 55.856C331.816 58.416 331.72 60.08 331.528 60.848C331.4 61.616 331.176 62 330.856 62H327.4C322.024 62 317.928 60.464 315.112 57.392C312.36 54.256 310.984 49.808 310.984 44.048V0.175995H323.272V43.184C323.272 45.232 323.656 46.768 324.424 47.792C325.256 48.752 326.536 49.232 328.264 49.232H330.856ZM345.275 49.232C345.915 49.232 346.235 51.44 346.235 55.856C346.235 58.48 346.139 60.176 345.947 60.944C345.755 61.648 345.531 62 345.275 62H330.875C330.235 62 329.915 59.952 329.915 55.856C329.915 51.44 330.235 49.232 330.875 49.232H345.275ZM359.713 49.232C360.353 49.232 360.673 51.44 360.673 55.856C360.673 58.48 360.577 60.176 360.385 60.944C360.193 61.648 359.969 62 359.713 62H345.312C344.672 62 344.352 59.952 344.352 55.856C344.352 51.44 344.672 49.232 345.312 49.232H359.713ZM374.15 49.232C374.79 49.232 375.11 51.44 375.11 55.856C375.11 58.48 375.014 60.176 374.822 60.944C374.63 61.648 374.406 62 374.15 62H359.75C359.11 62 358.79 59.952 358.79 55.856C358.79 51.44 359.11 49.232 359.75 49.232H374.15ZM388.588 49.232C389.228 49.232 389.548 51.44 389.548 55.856C389.548 58.48 389.452 60.176 389.26 60.944C389.068 61.648 388.844 62 388.588 62H374.188C373.547 62 373.227 59.952 373.227 55.856C373.227 51.44 373.547 49.232 374.188 49.232H388.588ZM415.601 44.912C415.601 50.224 414.001 54.416 410.801 57.488C407.665 60.496 403.409 62 398.033 62H388.625C387.985 62 387.665 59.952 387.665 55.856C387.665 51.44 387.985 49.232 388.625 49.232H398.033C399.633 49.232 400.913 48.816 401.873 47.984C402.897 47.088 403.409 45.872 403.409 44.336V28.976H415.601V44.912ZM417.905 8.048V18.992H390.833V8.048H417.905Z" fill="#0205B6"/>
</g>
</svg>
